<svg xmlns="http://www.w3.org/2000/svg" xmlns:xlink="http://www.w3.org/1999/xlink" width="300" zoomAndPan="magnify" viewBox="0 0 224.87999 127.500001" height="170" preserveAspectRatio="xMidYMid meet" version="1.0"><defs><g/></defs><g fill="#ffffff" fill-opacity="1"><g transform="translate(30.059085, 82.232206)"><g><path d="M 17.65625 0.390625 C 14.789062 0.390625 12.222656 -0.0703125 9.953125 -1 C 7.679688 -1.9375 5.863281 -3.316406 4.5 -5.140625 C 3.132812 -6.960938 2.414062 -9.160156 2.34375 -11.734375 L 12.515625 -11.734375 C 12.671875 -10.285156 13.175781 -9.175781 14.03125 -8.40625 C 14.882812 -7.644531 16 -7.265625 17.375 -7.265625 C 18.789062 -7.265625 19.910156 -7.585938 20.734375 -8.234375 C 21.554688 -8.890625 21.96875 -9.796875 21.96875 -10.953125 C 21.96875 -11.921875 21.640625 -12.722656 20.984375 -13.359375 C 20.335938 -13.992188 19.535156 -14.515625 18.578125 -14.921875 C 17.628906 -15.328125 16.28125 -15.789062 14.53125 -16.3125 C 12 -17.101562 9.929688 -17.890625 8.328125 -18.671875 C 6.722656 -19.453125 5.34375 -20.601562 4.1875 -22.125 C 3.03125 -23.65625 2.453125 -25.648438 2.453125 -28.109375 C 2.453125 -31.765625 3.773438 -34.625 6.421875 -36.6875 C 9.066406 -38.757812 12.515625 -39.796875 16.765625 -39.796875 C 21.085938 -39.796875 24.570312 -38.757812 27.21875 -36.6875 C 29.863281 -34.625 31.28125 -31.75 31.46875 -28.0625 L 21.125 -28.0625 C 21.050781 -29.320312 20.582031 -30.316406 19.71875 -31.046875 C 18.863281 -31.773438 17.769531 -32.140625 16.4375 -32.140625 C 15.28125 -32.140625 14.347656 -31.832031 13.640625 -31.21875 C 12.929688 -30.601562 12.578125 -29.71875 12.578125 -28.5625 C 12.578125 -27.289062 13.171875 -26.300781 14.359375 -25.59375 C 15.554688 -24.882812 17.421875 -24.125 19.953125 -23.3125 C 22.484375 -22.445312 24.539062 -21.625 26.125 -20.84375 C 27.707031 -20.0625 29.078125 -18.925781 30.234375 -17.4375 C 31.390625 -15.945312 31.96875 -14.03125 31.96875 -11.6875 C 31.96875 -9.445312 31.398438 -7.410156 30.265625 -5.578125 C 29.128906 -3.753906 27.476562 -2.300781 25.3125 -1.21875 C 23.15625 -0.144531 20.601562 0.390625 17.65625 0.390625 Z M 17.65625 0.390625 "/></g></g></g><g fill="#ffffff" fill-opacity="1"><g transform="translate(64.424398, 82.232206)"><g><path d="M 23.46875 0 L 15.3125 -14.8125 L 13.015625 -14.8125 L 13.015625 0 L 3.46875 0 L 3.46875 -39.234375 L 19.5 -39.234375 C 22.59375 -39.234375 25.226562 -38.691406 27.40625 -37.609375 C 29.59375 -36.535156 31.222656 -35.054688 32.296875 -33.171875 C 33.378906 -31.285156 33.921875 -29.191406 33.921875 -26.890625 C 33.921875 -24.273438 33.1875 -21.941406 31.71875 -19.890625 C 30.25 -17.847656 28.078125 -16.394531 25.203125 -15.53125 L 34.265625 0 Z M 13.015625 -21.578125 L 18.953125 -21.578125 C 20.703125 -21.578125 22.015625 -22.003906 22.890625 -22.859375 C 23.765625 -23.710938 24.203125 -24.921875 24.203125 -26.484375 C 24.203125 -27.984375 23.765625 -29.160156 22.890625 -30.015625 C 22.015625 -30.867188 20.703125 -31.296875 18.953125 -31.296875 L 13.015625 -31.296875 Z M 13.015625 -21.578125 "/></g></g></g><g fill="#ffffff" fill-opacity="1"><g transform="translate(100.857218, 82.232206)"><g><path d="M 31.6875 -39.234375 L 31.6875 -31.578125 L 21.296875 -31.578125 L 21.296875 0 L 11.734375 0 L 11.734375 -31.578125 L 1.34375 -31.578125 L 1.34375 -39.234375 Z M 31.6875 -39.234375 "/></g></g></g><g fill="#ffffff" fill-opacity="1"><g transform="translate(137.98622, 53.843534)"><g><path d="M 0.375 -3.5 C 0.375 -3.5 0.816406 -3.5 1.703125 -3.5 C 1.742188 -3.101562 1.8125 -2.773438 1.90625 -2.515625 C 2.007812 -2.265625 2.15625 -2.03125 2.34375 -1.8125 C 2.5625 -1.53125 2.84375 -1.3125 3.1875 -1.15625 C 3.539062 -1.007812 3.914062 -0.9375 4.3125 -0.9375 C 5.03125 -0.9375 5.617188 -1.171875 6.078125 -1.640625 C 6.546875 -2.109375 6.78125 -2.703125 6.78125 -3.421875 C 6.78125 -4.210938 6.5 -4.8125 5.9375 -5.21875 C 5.539062 -5.488281 4.890625 -5.757812 3.984375 -6.03125 C 3.265625 -6.25 2.757812 -6.425781 2.46875 -6.5625 C 2.175781 -6.707031 1.90625 -6.898438 1.65625 -7.140625 C 1.375 -7.398438 1.15625 -7.722656 1 -8.109375 C 0.851562 -8.503906 0.78125 -8.921875 0.78125 -9.359375 C 0.78125 -10.335938 1.101562 -11.140625 1.75 -11.765625 C 2.40625 -12.398438 3.238281 -12.71875 4.25 -12.71875 C 5.269531 -12.71875 6.101562 -12.40625 6.75 -11.78125 C 7.394531 -11.164062 7.726562 -10.351562 7.75 -9.34375 L 6.4375 -9.34375 C 6.394531 -10.019531 6.171875 -10.5625 5.765625 -10.96875 C 5.367188 -11.375 4.851562 -11.578125 4.21875 -11.578125 C 3.582031 -11.578125 3.0625 -11.367188 2.65625 -10.953125 C 2.25 -10.546875 2.046875 -10.023438 2.046875 -9.390625 C 2.046875 -9.109375 2.097656 -8.835938 2.203125 -8.578125 C 2.304688 -8.316406 2.453125 -8.101562 2.640625 -7.9375 C 2.804688 -7.789062 3.007812 -7.664062 3.25 -7.5625 C 3.5 -7.457031 3.910156 -7.320312 4.484375 -7.15625 C 5.109375 -6.96875 5.582031 -6.800781 5.90625 -6.65625 C 6.238281 -6.507812 6.539062 -6.34375 6.8125 -6.15625 C 7.207031 -5.851562 7.515625 -5.46875 7.734375 -5 C 7.953125 -4.539062 8.0625 -4.035156 8.0625 -3.484375 C 8.0625 -2.421875 7.703125 -1.535156 6.984375 -0.828125 C 6.265625 -0.128906 5.363281 0.21875 4.28125 0.21875 C 3.15625 0.21875 2.238281 -0.117188 1.53125 -0.796875 C 0.820312 -1.472656 0.4375 -2.375 0.375 -3.5 Z M 0.375 -3.5 "/></g></g></g><g fill="#ffffff" fill-opacity="1"><g transform="translate(146.407803, 53.843534)"><g><path d="M 1.28125 0 C 1.28125 0 1.28125 -4.164062 1.28125 -12.5 C 1.28125 -12.5 1.695312 -12.5 2.53125 -12.5 C 2.53125 -12.5 2.53125 -8.332031 2.53125 0 C 2.53125 0 2.113281 0 1.28125 0 Z M 1.28125 0 "/></g></g></g><g fill="#ffffff" fill-opacity="1"><g transform="translate(150.226028, 53.843534)"><g><path d="M 1.28125 0 C 1.28125 0 1.28125 -4.164062 1.28125 -12.5 C 1.28125 -12.5 1.695312 -12.5 2.53125 -12.5 C 2.53125 -12.5 2.53125 -8.707031 2.53125 -1.125 C 2.53125 -1.125 4.257812 -1.125 7.71875 -1.125 C 7.71875 -1.125 7.71875 -0.75 7.71875 0 C 7.71875 0 5.570312 0 1.28125 0 Z M 1.28125 0 "/></g></g></g><g fill="#ffffff" fill-opacity="1"><g transform="translate(158.044298, 53.843534)"><g><path d="M 1.28125 0 C 1.28125 0 1.28125 -4.164062 1.28125 -12.5 C 1.28125 -12.5 1.695312 -12.5 2.53125 -12.5 C 2.53125 -12.5 2.53125 -10.101562 2.53125 -5.3125 C 2.53125 -5.3125 4.460938 -7.707031 8.328125 -12.5 C 8.328125 -12.5 8.851562 -12.5 9.90625 -12.5 C 9.90625 -12.5 8.253906 -10.46875 4.953125 -6.40625 C 4.953125 -6.40625 6.601562 -4.269531 9.90625 0 C 9.90625 0 9.378906 0 8.328125 0 C 8.328125 0 6.941406 -1.800781 4.171875 -5.40625 C 4.171875 -5.40625 3.625 -4.742188 2.53125 -3.421875 C 2.53125 -3.421875 2.53125 -2.28125 2.53125 0 C 2.53125 0 2.113281 0 1.28125 0 Z M 1.28125 0 "/></g></g></g><g fill="#ffffff" fill-opacity="1"><g transform="translate(137.98622, 68.037869)"><g><path d="M 6.078125 -4.671875 C 6.078125 -4.671875 7.242188 -3.113281 9.578125 0 C 9.578125 0 9.054688 0 8.015625 0 C 8.015625 0 6.613281 -1.890625 3.8125 -5.671875 C 5.15625 -5.671875 6.113281 -5.75 6.6875 -5.90625 C 7.894531 -6.257812 8.5 -7.128906 8.5 -8.515625 C 8.5 -9.085938 8.382812 -9.578125 8.15625 -9.984375 C 7.925781 -10.398438 7.597656 -10.710938 7.171875 -10.921875 C 6.535156 -11.222656 5.578125 -11.375 4.296875 -11.375 L 2.53125 -11.375 C 2.53125 -11.375 2.53125 -7.582031 2.53125 0 C 2.53125 0 2.113281 0 1.28125 0 C 1.28125 0 1.28125 -4.164062 1.28125 -12.5 C 1.28125 -12.5 2.3125 -12.5 4.375 -12.5 C 6.007812 -12.5 7.207031 -12.285156 7.96875 -11.859375 C 8.550781 -11.523438 8.992188 -11.070312 9.296875 -10.5 C 9.609375 -9.925781 9.765625 -9.257812 9.765625 -8.5 C 9.765625 -7.375 9.445312 -6.484375 8.8125 -5.828125 C 8.1875 -5.179688 7.273438 -4.796875 6.078125 -4.671875 Z M 6.078125 -4.671875 "/></g></g></g><g fill="#ffffff" fill-opacity="1"><g transform="translate(148.259064, 68.037869)"><g><path d="M 7.4375 -12.71875 C 8.3125 -12.71875 9.148438 -12.546875 9.953125 -12.203125 C 10.753906 -11.859375 11.445312 -11.394531 12.03125 -10.8125 C 12.625 -10.238281 13.09375 -9.550781 13.4375 -8.75 C 13.789062 -7.945312 13.96875 -7.113281 13.96875 -6.25 C 13.96875 -5.375 13.789062 -4.535156 13.4375 -3.734375 C 13.09375 -2.941406 12.625 -2.253906 12.03125 -1.671875 C 11.4375 -1.097656 10.726562 -0.640625 9.90625 -0.296875 C 9.09375 0.046875 8.242188 0.21875 7.359375 0.21875 C 6.472656 0.21875 5.617188 0.046875 4.796875 -0.296875 C 3.984375 -0.640625 3.28125 -1.097656 2.6875 -1.671875 C 2.09375 -2.253906 1.617188 -2.941406 1.265625 -3.734375 C 0.921875 -4.535156 0.75 -5.375 0.75 -6.25 C 0.75 -7.425781 1.046875 -8.507812 1.640625 -9.5 C 2.234375 -10.5 3.039062 -11.285156 4.0625 -11.859375 C 5.09375 -12.429688 6.21875 -12.71875 7.4375 -12.71875 Z M 7.296875 -11.578125 C 6.359375 -11.578125 5.484375 -11.332031 4.671875 -10.84375 C 3.859375 -10.363281 3.210938 -9.710938 2.734375 -8.890625 C 2.253906 -8.066406 2.015625 -7.1875 2.015625 -6.25 C 2.015625 -5.289062 2.253906 -4.398438 2.734375 -3.578125 C 3.222656 -2.765625 3.875 -2.117188 4.6875 -1.640625 C 5.507812 -1.171875 6.398438 -0.9375 7.359375 -0.9375 C 8.078125 -0.9375 8.765625 -1.078125 9.421875 -1.359375 C 10.078125 -1.640625 10.644531 -2.015625 11.125 -2.484375 C 11.601562 -2.960938 11.984375 -3.53125 12.265625 -4.1875 C 12.546875 -4.84375 12.6875 -5.523438 12.6875 -6.234375 C 12.6875 -6.960938 12.546875 -7.65625 12.265625 -8.3125 C 11.984375 -8.96875 11.597656 -9.535156 11.109375 -10.015625 C 10.628906 -10.492188 10.054688 -10.875 9.390625 -11.15625 C 8.722656 -11.4375 8.023438 -11.578125 7.296875 -11.578125 Z M 7.296875 -11.578125 "/></g></g></g><g fill="#ffffff" fill-opacity="1"><g transform="translate(162.961709, 68.037869)"><g><path d="M 0.1875 0 C 0.1875 0 1.972656 -4.164062 5.546875 -12.5 C 5.546875 -12.5 6.015625 -12.5 6.953125 -12.5 C 6.953125 -12.5 8.75 -8.332031 12.34375 0 C 12.34375 0 11.882812 0 10.96875 0 C 10.96875 0 10.363281 -1.40625 9.15625 -4.21875 C 9.15625 -4.21875 7.210938 -4.21875 3.328125 -4.21875 C 3.328125 -4.21875 2.71875 -2.8125 1.5 0 C 1.5 0 1.0625 0 0.1875 0 Z M 3.8125 -5.34375 C 3.8125 -5.34375 5.429688 -5.34375 8.671875 -5.34375 C 8.671875 -5.34375 7.867188 -7.253906 6.265625 -11.078125 C 6.265625 -11.078125 5.445312 -9.164062 3.8125 -5.34375 Z M 3.8125 -5.34375 "/></g></g></g><g fill="#ffffff" fill-opacity="1"><g transform="translate(175.482512, 68.037869)"><g><path d="M 1.28125 0 C 1.28125 0 1.28125 -4.164062 1.28125 -12.5 C 1.28125 -12.5 2.265625 -12.5 4.234375 -12.5 C 5.398438 -12.5 6.359375 -12.414062 7.109375 -12.25 C 7.859375 -12.09375 8.535156 -11.820312 9.140625 -11.4375 C 10.023438 -10.875 10.695312 -10.148438 11.15625 -9.265625 C 11.613281 -8.378906 11.84375 -7.363281 11.84375 -6.21875 C 11.84375 -5.019531 11.582031 -3.960938 11.0625 -3.046875 C 10.550781 -2.128906 9.804688 -1.398438 8.828125 -0.859375 C 7.785156 -0.285156 6.394531 0 4.65625 0 Z M 2.53125 -1.125 L 4.28125 -1.125 C 5.414062 -1.125 6.335938 -1.21875 7.046875 -1.40625 C 7.765625 -1.59375 8.375 -1.90625 8.875 -2.34375 C 9.425781 -2.8125 9.847656 -3.382812 10.140625 -4.0625 C 10.429688 -4.738281 10.578125 -5.472656 10.578125 -6.265625 C 10.578125 -7.210938 10.363281 -8.066406 9.9375 -8.828125 C 9.519531 -9.597656 8.9375 -10.195312 8.1875 -10.625 C 7.726562 -10.882812 7.191406 -11.070312 6.578125 -11.1875 C 5.960938 -11.3125 5.195312 -11.375 4.28125 -11.375 L 2.53125 -11.375 Z M 2.53125 -1.125 "/></g></g></g><g fill="#ffffff" fill-opacity="1"><g transform="translate(188.074948, 68.037869)"><g/></g></g><g fill="#ffffff" fill-opacity="1"><g transform="translate(137.98622, 82.232205)"><g><path d="M 2.96875 0 C 2.96875 0 2.96875 -3.789062 2.96875 -11.375 C 2.96875 -11.375 2.015625 -11.375 0.109375 -11.375 C 0.109375 -11.375 0.109375 -11.75 0.109375 -12.5 C 0.109375 -12.5 2.4375 -12.5 7.09375 -12.5 C 7.09375 -12.5 7.09375 -12.125 7.09375 -11.375 C 7.09375 -11.375 6.140625 -11.375 4.234375 -11.375 C 4.234375 -11.375 4.234375 -7.582031 4.234375 0 C 4.234375 0 3.8125 0 2.96875 0 Z M 2.96875 0 "/></g></g></g><g fill="#ffffff" fill-opacity="1"><g transform="translate(145.192913, 82.232205)"><g><path d="M 1.28125 0 C 1.28125 0 1.28125 -4.164062 1.28125 -12.5 C 1.28125 -12.5 3.5625 -12.5 8.125 -12.5 C 8.125 -12.5 8.125 -12.125 8.125 -11.375 C 8.125 -11.375 6.257812 -11.375 2.53125 -11.375 C 2.53125 -11.375 2.53125 -9.878906 2.53125 -6.890625 C 2.53125 -6.890625 4.332031 -6.890625 7.9375 -6.890625 C 7.9375 -6.890625 7.9375 -6.507812 7.9375 -5.75 C 7.9375 -5.75 6.132812 -5.75 2.53125 -5.75 C 2.53125 -5.75 2.53125 -4.207031 2.53125 -1.125 C 2.53125 -1.125 4.394531 -1.125 8.125 -1.125 C 8.125 -1.125 8.125 -0.75 8.125 0 C 8.125 0 5.84375 0 1.28125 0 Z M 1.28125 0 "/></g></g></g><g fill="#ffffff" fill-opacity="1"><g transform="translate(154.259131, 82.232205)"><g><path d="M 11.640625 -3.28125 C 11.640625 -3.28125 12.101562 -3.28125 13.03125 -3.28125 C 11.769531 -0.945312 9.863281 0.21875 7.3125 0.21875 C 6.394531 0.21875 5.523438 0.0546875 4.703125 -0.265625 C 3.890625 -0.597656 3.191406 -1.050781 2.609375 -1.625 C 2.035156 -2.195312 1.582031 -2.878906 1.25 -3.671875 C 0.914062 -4.460938 0.75 -5.3125 0.75 -6.21875 C 0.75 -7.445312 1.023438 -8.554688 1.578125 -9.546875 C 2.140625 -10.535156 2.914062 -11.3125 3.90625 -11.875 C 4.894531 -12.4375 6 -12.71875 7.21875 -12.71875 C 8.507812 -12.71875 9.671875 -12.40625 10.703125 -11.78125 C 11.734375 -11.164062 12.492188 -10.320312 12.984375 -9.25 L 11.578125 -9.25 C 11.335938 -9.644531 11.109375 -9.953125 10.890625 -10.171875 C 10.679688 -10.390625 10.429688 -10.59375 10.140625 -10.78125 C 9.296875 -11.3125 8.34375 -11.578125 7.28125 -11.578125 C 6.539062 -11.578125 5.84375 -11.441406 5.1875 -11.171875 C 4.539062 -10.898438 3.984375 -10.523438 3.515625 -10.046875 C 3.054688 -9.578125 2.691406 -9.015625 2.421875 -8.359375 C 2.148438 -7.703125 2.015625 -7.003906 2.015625 -6.265625 C 2.015625 -5.546875 2.148438 -4.851562 2.421875 -4.1875 C 2.703125 -3.53125 3.078125 -2.960938 3.546875 -2.484375 C 4.023438 -2.015625 4.585938 -1.640625 5.234375 -1.359375 C 5.890625 -1.078125 6.578125 -0.9375 7.296875 -0.9375 C 7.878906 -0.9375 8.441406 -1.03125 8.984375 -1.21875 C 9.535156 -1.40625 10.023438 -1.671875 10.453125 -2.015625 C 10.859375 -2.347656 11.253906 -2.769531 11.640625 -3.28125 Z M 11.640625 -3.28125 "/></g></g></g><g fill="#ffffff" fill-opacity="1"><g transform="translate(168.019618, 82.232205)"><g><path d="M 1.28125 0 C 1.28125 0 1.28125 -4.164062 1.28125 -12.5 C 1.28125 -12.5 1.695312 -12.5 2.53125 -12.5 C 2.53125 -12.5 2.53125 -10.664062 2.53125 -7 C 2.53125 -7 4.691406 -7 9.015625 -7 C 9.015625 -7 9.015625 -8.832031 9.015625 -12.5 C 9.015625 -12.5 9.429688 -12.5 10.265625 -12.5 C 10.265625 -12.5 10.265625 -8.332031 10.265625 0 C 10.265625 0 9.847656 0 9.015625 0 C 9.015625 0 9.015625 -1.957031 9.015625 -5.875 C 9.015625 -5.875 6.851562 -5.875 2.53125 -5.875 C 2.53125 -5.875 2.53125 -3.914062 2.53125 0 C 2.53125 0 2.113281 0 1.28125 0 Z M 1.28125 0 "/></g></g></g></svg>