<svg width="46" height="42" viewBox="0 0 46 42" fill="none" xmlns="http://www.w3.org/2000/svg">
<path d="M20.6309 32.2969C22.4659 35.3211 23.9049 38.5558 24.9258 41.9385H19.8828L19.5508 41.0195C18.7501 38.8893 17.7615 36.8542 16.6064 34.9297L20.2588 31.6943L20.6309 32.2969ZM13.7227 38.9189C14.2251 39.9066 14.6871 40.9124 15.1084 41.9365H9.85352L9.50098 41.2236V41.2207L13.207 37.9365L13.7227 38.9189ZM27.1992 25.541C30.7859 30.463 33.3162 36.0228 34.6709 41.9365H29.3721C28.1319 37.222 26.0579 32.8441 23.3203 28.9766H23.3184L27.1963 25.541L27.1973 25.542L27.1992 25.541ZM45.2568 41.8418H44.2842C44.2906 41.8741 44.2947 41.9042 44.2969 41.9365H38.8477C37.8235 34.8302 35.0325 28.1558 30.6875 22.4561L34.7402 18.8633C36.5789 21.2356 38.1786 23.7587 39.5225 26.4033V9.13184L32.0762 15.7197L28.0342 19.2998L24.6221 22.3184L20.7656 25.7314L17.8701 28.2939L14.2686 31.4834L11.0234 34.3574L10.5 34.8193L10.4141 34.7178V27.2373L10.4482 27.2051L14.0498 24.0166L16.6836 21.6875L20.5713 18.2471L23.8418 15.3516L27.9297 11.7305L39.5195 1.47363L40.0059 1.04395H45.2568V41.8418ZM18.3486 0.951172L15.0166 3.89551L10.4141 7.9707L7.79395 10.291L6.68262 11.2744V17.7393L8.40723 16.2119L12.5381 12.5557L15.4443 9.98633L19.79 6.13867L25.6533 0.951172H34.3047L24.8516 9.31445L20.6924 12.999L17.5449 15.7812L13.5908 19.2842L11.1621 21.4316L7.5127 24.6621L6.68262 25.3965L6.5625 25.5029L6.49316 25.5654V41.748H0.974609V1.14062H6.49316V3.78613L6.5625 3.72559L6.68262 3.61719L8.66699 1.8623L9.69727 0.951172H18.3486Z" fill="white"/>
</svg>
