<svg width="40" height="30" viewBox="0 0 40 30" fill="none" xmlns="http://www.w3.org/2000/svg">
<path fill-rule="evenodd" clip-rule="evenodd" d="M15.2992 8.50202L13.3565 21.7409H15.5421L17.4848 8.50202H20.6418L21.0061 5.58704H12.1422L11.6566 8.50202H15.2992ZM22.8274 16.3968L20.8847 29.6356H23.0703L25.013 16.3968H28.17L28.5343 13.4818H19.549L19.1848 16.3968H22.8274ZM19.9133 27.3279C12.0208 28.664 4.73548 25.5061 3.03556 19.6761C1.21423 13.2389 6.92108 5.82996 15.9063 3.27935C24.8916 0.728745 33.634 3.88664 35.4554 10.3239C37.1553 16.1538 32.6627 22.7125 25.1345 25.8704L24.6488 29.3927C32.6626 27.5709 38.6124 21.8623 38.6124 14.9393C38.4909 6.68016 29.8699 0 19.3062 0C8.74242 0 0 6.68016 0 14.9393C0 23.1984 8.621 29.8785 19.3062 29.8785C19.4276 29.8785 19.549 29.8785 19.6704 29.8785L19.9133 27.3279Z" fill="#AB1228"/>
</svg>
